<svg id="Capa_1" data-name="Capa 1" xmlns="http://www.w3.org/2000/svg" viewBox="0 0 216 40.51"><defs><style>.cls-1{fill:#134f93;}.cls-2{fill:#fff;}.cls-3{fill:#c23234;}</style></defs><title>HYO FINA</title><rect class="cls-1" width="216" height="40.51"/><path class="cls-2" d="M19.1,2.24H196.9a18,18,0,0,1,18,18h0a18,18,0,0,1-18,18H19.1a18,18,0,0,1-18-18h0A18,18,0,0,1,19.1,2.24Z"/><path class="cls-1" d="M20.72,20.72V28.2a7.45,7.45,0,0,0,.21,2.32,1.85,1.85,0,0,0,.82.81,3.32,3.32,0,0,0,1.64.35h.82v.66H11.32v-.66h.82a3.46,3.46,0,0,0,1.73-.37,1.63,1.63,0,0,0,.73-.85,7.21,7.21,0,0,0,.2-2.24V12.31a7.8,7.8,0,0,0-.2-2.32,1.79,1.79,0,0,0-.81-.81,3.32,3.32,0,0,0-1.64-.35h-.82V8.18H24.21v.66h-.82a3.46,3.46,0,0,0-1.73.37,1.72,1.72,0,0,0-.75.85,7.21,7.21,0,0,0-.2,2.24v6.84h8.71V12.3a7.8,7.8,0,0,0-.2-2.32,1.79,1.79,0,0,0-.82-.81,3.37,3.37,0,0,0-1.65-.35H26V8.18H38.82v.66H38a3.4,3.4,0,0,0-1.73.37,1.72,1.72,0,0,0-.74.85,7.21,7.21,0,0,0-.2,2.24V28.2a7.79,7.79,0,0,0,.2,2.32,1.8,1.8,0,0,0,.82.81,3.37,3.37,0,0,0,1.65.35h.8v.66H26v-.66h.8a3.4,3.4,0,0,0,1.73-.37,1.71,1.71,0,0,0,.74-.85,7.21,7.21,0,0,0,.2-2.24V20.72Z"/><path class="cls-1" d="M59.19,17.88h7.56v.7a4.19,4.19,0,0,0-2,.74,9.54,9.54,0,0,0-1.89,2.61,32.22,32.22,0,0,1-3.27,4.58,18.41,18.41,0,0,0,3,2.28,3.33,3.33,0,0,0,1.6.45,3,3,0,0,0,2.43-1.73l.74.39A11.37,11.37,0,0,1,64.21,32a5,5,0,0,1-2.94.91,6.32,6.32,0,0,1-2.7-.6,13.85,13.85,0,0,1-3.12-2.24,18.66,18.66,0,0,1-4.27,2.17,13,13,0,0,1-4.16.66,7.89,7.89,0,0,1-5.49-1.84,5.64,5.64,0,0,1-2-4.31,6.42,6.42,0,0,1,1.94-4.65,16,16,0,0,1,5.65-3.42,13.41,13.41,0,0,1-.71-2.26,10.22,10.22,0,0,1-.24-2.14,6.21,6.21,0,0,1,2-4.75,7.37,7.37,0,0,1,5.22-1.9,6.13,6.13,0,0,1,4.06,1.26A3.74,3.74,0,0,1,59,11.81a4.55,4.55,0,0,1-1.54,3.45,14.19,14.19,0,0,1-4.86,2.62,40.74,40.74,0,0,0,6,7.64q2.67-2.93,2.67-5a1.73,1.73,0,0,0-.53-1.27,2.49,2.49,0,0,0-1.54-.63ZM47.6,19.81a5.67,5.67,0,0,0-2.05,1.28,3.34,3.34,0,0,0-.85,2.23,6.43,6.43,0,0,0,1,3.33,7.68,7.68,0,0,0,2.39,2.57,5.08,5.08,0,0,0,2.79.91,4.88,4.88,0,0,0,1.55-.29,10.76,10.76,0,0,0,1.88-.88,34.73,34.73,0,0,1-6.7-9.13Zm4.36-3a6.1,6.1,0,0,0,2.56-1.49,2.91,2.91,0,0,0,.66-1.91A5.3,5.3,0,0,0,54.1,10a2.13,2.13,0,0,0-1.74-.91,1.92,1.92,0,0,0-1.46.66,2.52,2.52,0,0,0-.61,1.78,6.71,6.71,0,0,0,.29,1.87A28.53,28.53,0,0,0,52,16.82Z"/><path class="cls-3" d="M81.66,7.84a12.45,12.45,0,0,1,9.57,3.37,12,12,0,0,1,3.68,9,12.72,12.72,0,0,1-2.74,8.09q-3.63,4.63-10.27,4.63T71.61,28.47a12.63,12.63,0,0,1-2.87-8.29A12.18,12.18,0,0,1,81.66,7.84ZM81.88,9a5.56,5.56,0,0,0-5.14,3.38,17.78,17.78,0,0,0-1.44,8q0,6.18,2.22,9.14a5.09,5.09,0,0,0,4.33,2.07A5.26,5.26,0,0,0,85,30.66,7.31,7.31,0,0,0,87.46,27a19.91,19.91,0,0,0,.89-6.53,21.29,21.29,0,0,0-.91-7.17A6.94,6.94,0,0,0,85.12,10a5.54,5.54,0,0,0-3.25-1Z"/><path class="cls-1" d="M104.76,30.73h-1.61V18.16h4.55a4,4,0,0,1,3.15,1.14,3.79,3.79,0,0,1,1,2.59,3.55,3.55,0,0,1-1.1,2.68,4,4,0,0,1-2.89,1.06h-3.11Zm0-6.41h2.95a2.53,2.53,0,0,0,1.83-.67,2.34,2.34,0,0,0,.7-1.76,2.53,2.53,0,0,0-.62-1.68,2.21,2.21,0,0,0-1.79-.74h-3.06Z"/><path class="cls-1" d="M104.83,30.8h-1.75V18.08h4.61a4.09,4.09,0,0,1,3.2,1.16,3.87,3.87,0,0,1,1,2.64,3.63,3.63,0,0,1-1.12,2.73,4.08,4.08,0,0,1-2.93,1.08h-3Zm-1.61-.14h1.47v-5.1h3.18a4,4,0,0,0,2.84-1,3.5,3.5,0,0,0,1.08-2.63,3.73,3.73,0,0,0-1-2.55,4,4,0,0,0-3.09-1.12h-4.47Zm4.49-6.27h-3v-5h3.13a2.29,2.29,0,0,1,1.85.76,2.61,2.61,0,0,1,.64,1.72,2.42,2.42,0,0,1-.72,1.82,2.6,2.6,0,0,1-1.88.68Zm-2.88-.14h2.88a2.47,2.47,0,0,0,1.78-.65,2.28,2.28,0,0,0,.67-1.71,2.47,2.47,0,0,0-.6-1.63,2.15,2.15,0,0,0-1.74-.71h-3Z"/><path class="cls-1" d="M104.76,30.73h-1.61V18.16h4.55a4,4,0,0,1,3.15,1.14,3.79,3.79,0,0,1,1,2.59,3.55,3.55,0,0,1-1.1,2.68,4,4,0,0,1-2.89,1.06h-3.11Zm0-6.41h2.95a2.53,2.53,0,0,0,1.83-.67,2.34,2.34,0,0,0,.7-1.76,2.53,2.53,0,0,0-.62-1.68,2.21,2.21,0,0,0-1.79-.74h-3.06Z"/><path class="cls-1" d="M104.83,30.8h-1.75V18.08h4.61a4.09,4.09,0,0,1,3.2,1.16,3.87,3.87,0,0,1,1,2.64,3.63,3.63,0,0,1-1.12,2.73,4.08,4.08,0,0,1-2.93,1.08h-3Zm-1.61-.14h1.47v-5.1h3.18a4,4,0,0,0,2.84-1,3.5,3.5,0,0,0,1.08-2.63,3.73,3.73,0,0,0-1-2.55,4,4,0,0,0-3.09-1.12h-4.47Zm4.49-6.27h-3v-5h3.13a2.29,2.29,0,0,1,1.85.76,2.61,2.61,0,0,1,.64,1.72,2.42,2.42,0,0,1-.72,1.82,2.6,2.6,0,0,1-1.88.68Zm-2.88-.14h2.88a2.47,2.47,0,0,0,1.78-.65,2.28,2.28,0,0,0,.67-1.71,2.47,2.47,0,0,0-.6-1.63,2.15,2.15,0,0,0-1.74-.71h-3Z"/><path class="cls-1" d="M115.69,30.73h-1.48v-9.3h1.3V23.6a4.68,4.68,0,0,1,1.38-2,2.54,2.54,0,0,1,1.41-.46l.58,0v1.38h-.3a2.62,2.62,0,0,0-2,.89,3.59,3.59,0,0,0-.86,2.35Z"/><path class="cls-1" d="M115.76,30.8h-1.61V21.36h1.44v1.92a4.25,4.25,0,0,1,1.27-1.73,2.62,2.62,0,0,1,1.45-.47l.59,0H119v1.51h-.37a2.56,2.56,0,0,0-2,.87,3.53,3.53,0,0,0-.85,2.3Zm-1.48-.14h1.34V25.81a3.67,3.67,0,0,1,.88-2.39,2.7,2.7,0,0,1,2.08-.92h.23V21.24l-.51,0a2.48,2.48,0,0,0-1.37.44,4.63,4.63,0,0,0-1.35,2l-.14.3V21.5h-1.16Z"/><path class="cls-1" d="M115.69,30.73h-1.48v-9.3h1.3V23.6a4.68,4.68,0,0,1,1.38-2,2.54,2.54,0,0,1,1.41-.46l.58,0v1.38h-.3a2.62,2.62,0,0,0-2,.89,3.59,3.59,0,0,0-.86,2.35Z"/><path class="cls-1" d="M115.76,30.8h-1.61V21.36h1.44v1.92a4.25,4.25,0,0,1,1.27-1.73,2.62,2.62,0,0,1,1.45-.47l.59,0H119v1.51h-.37a2.56,2.56,0,0,0-2,.87,3.53,3.53,0,0,0-.85,2.3Zm-1.48-.14h1.34V25.81a3.67,3.67,0,0,1,.88-2.39,2.7,2.7,0,0,1,2.08-.92h.23V21.24l-.51,0a2.48,2.48,0,0,0-1.37.44,4.63,4.63,0,0,0-1.35,2l-.14.3V21.5h-1.16Z"/><path class="cls-1" d="M124.05,31a3.63,3.63,0,0,1-3-1.42A5.61,5.61,0,0,1,119.91,26a5,5,0,0,1,1.23-3.55,4,4,0,0,1,3.06-1.33,3.77,3.77,0,0,1,3.09,1.4,5.37,5.37,0,0,1,1.13,3.49,5.16,5.16,0,0,1-1.22,3.55A4,4,0,0,1,124.05,31Zm.11-1.2a2.36,2.36,0,0,0,1.89-.91,4.37,4.37,0,0,0,.76-2.84,4.1,4.1,0,0,0-.8-2.8,2.46,2.46,0,0,0-1.87-.87,2.37,2.37,0,0,0-1.86.88,4.2,4.2,0,0,0-.76,2.79,4.37,4.37,0,0,0,.76,2.89,2.4,2.4,0,0,0,1.88.87Z"/><path class="cls-1" d="M124.05,31.05a3.71,3.71,0,0,1-3.1-1.45A5.68,5.68,0,0,1,119.84,26a5.1,5.1,0,0,1,1.25-3.6,4.09,4.09,0,0,1,3.11-1.35,3.85,3.85,0,0,1,3.15,1.42A5.44,5.44,0,0,1,128.5,26a5.26,5.26,0,0,1-1.24,3.6A4.11,4.11,0,0,1,124.05,31.05Zm.15-9.82a4,4,0,0,0-3,1.31A5,5,0,0,0,120,26a5.55,5.55,0,0,0,1.08,3.48,3.58,3.58,0,0,0,3,1.4,4,4,0,0,0,3.1-1.36,5.12,5.12,0,0,0,1.2-3.51,5.31,5.31,0,0,0-1.12-3.44A3.71,3.71,0,0,0,124.2,21.23Zm0,8.62a2.48,2.48,0,0,1-1.93-.89,4.45,4.45,0,0,1-.78-2.93,4.28,4.28,0,0,1,.78-2.83,2.45,2.45,0,0,1,1.91-.9,2.54,2.54,0,0,1,1.92.89,4.15,4.15,0,0,1,.82,2.85,4.45,4.45,0,0,1-.78,2.88,2.44,2.44,0,0,1-1.94.94Zm0-7.42a2.31,2.31,0,0,0-1.81.85,4.16,4.16,0,0,0-.74,2.74,4.33,4.33,0,0,0,.74,2.84,2.34,2.34,0,0,0,1.83.85,2.31,2.31,0,0,0,1.83-.89,4.34,4.34,0,0,0,.74-2.79,4,4,0,0,0-.78-2.76,2.41,2.41,0,0,0-1.82-.84Z"/><path class="cls-1" d="M124.05,31a3.63,3.63,0,0,1-3-1.42A5.61,5.61,0,0,1,119.91,26a5,5,0,0,1,1.23-3.55,4,4,0,0,1,3.06-1.33,3.77,3.77,0,0,1,3.09,1.4,5.37,5.37,0,0,1,1.13,3.49,5.16,5.16,0,0,1-1.22,3.55A4,4,0,0,1,124.05,31Zm.11-1.2a2.36,2.36,0,0,0,1.89-.91,4.37,4.37,0,0,0,.76-2.84,4.1,4.1,0,0,0-.8-2.8,2.46,2.46,0,0,0-1.87-.87,2.37,2.37,0,0,0-1.86.88,4.2,4.2,0,0,0-.76,2.79,4.37,4.37,0,0,0,.76,2.89,2.4,2.4,0,0,0,1.88.87Z"/><path class="cls-1" d="M124.05,31.05a3.71,3.71,0,0,1-3.1-1.45A5.68,5.68,0,0,1,119.84,26a5.1,5.1,0,0,1,1.25-3.6,4.09,4.09,0,0,1,3.11-1.35,3.85,3.85,0,0,1,3.15,1.42A5.44,5.44,0,0,1,128.5,26a5.26,5.26,0,0,1-1.24,3.6A4.11,4.11,0,0,1,124.05,31.05Zm.15-9.82a4,4,0,0,0-3,1.31A5,5,0,0,0,120,26a5.55,5.55,0,0,0,1.08,3.48,3.58,3.58,0,0,0,3,1.4,4,4,0,0,0,3.1-1.36,5.12,5.12,0,0,0,1.2-3.51,5.31,5.31,0,0,0-1.12-3.44A3.71,3.71,0,0,0,124.2,21.23Zm0,8.62a2.48,2.48,0,0,1-1.93-.89,4.45,4.45,0,0,1-.78-2.93,4.28,4.28,0,0,1,.78-2.83,2.45,2.45,0,0,1,1.91-.9,2.54,2.54,0,0,1,1.92.89,4.15,4.15,0,0,1,.82,2.85,4.45,4.45,0,0,1-.78,2.88,2.44,2.44,0,0,1-1.94.94Zm0-7.42a2.31,2.31,0,0,0-1.81.85,4.16,4.16,0,0,0-.74,2.74,4.33,4.33,0,0,0,.74,2.84,2.34,2.34,0,0,0,1.83.85,2.31,2.31,0,0,0,1.83-.89,4.34,4.34,0,0,0,.74-2.79,4,4,0,0,0-.78-2.76,2.41,2.41,0,0,0-1.82-.84Z"/><path class="cls-1" d="M135,21.43v1.13h-2.25v8.17h-1.47V22.56h-1.62V21.43h1.61q0-2.24.88-2.88a3.27,3.27,0,0,1,2.05-.64,8.21,8.21,0,0,1,1.36.12v1.15a3.77,3.77,0,0,0-.91-.12,2.09,2.09,0,0,0-1.43.42,2.08,2.08,0,0,0-.47,1.57v.38Z"/><path class="cls-1" d="M132.84,30.8h-1.61V22.63h-1.62V21.36h1.62c0-1.47.34-2.43.9-2.87a3.35,3.35,0,0,1,2.1-.66,8.32,8.32,0,0,1,1.36.13h.06v1.3l-.09,0a3.71,3.71,0,0,0-.89-.12,2.06,2.06,0,0,0-1.39.4,2,2,0,0,0-.44,1.52v.31h2.25v1.27h-2.26Zm-1.48-.14h1.34V22.49H135v-1H132.7v-.45a2.15,2.15,0,0,1,.49-1.62,2.16,2.16,0,0,1,1.48-.44,3.78,3.78,0,0,1,.84.1v-1a8.06,8.06,0,0,0-1.28-.12,3.21,3.21,0,0,0-2,.63c-.54.42-.83,1.37-.85,2.83v.07h-1.61v1h1.61Z"/><path class="cls-1" d="M135,21.43v1.13h-2.25v8.17h-1.47V22.56h-1.62V21.43h1.61q0-2.24.88-2.88a3.27,3.27,0,0,1,2.05-.64,8.21,8.21,0,0,1,1.36.12v1.15a3.77,3.77,0,0,0-.91-.12,2.09,2.09,0,0,0-1.43.42,2.08,2.08,0,0,0-.47,1.57v.38Z"/><path class="cls-1" d="M132.84,30.8h-1.61V22.63h-1.62V21.36h1.62c0-1.47.34-2.43.9-2.87a3.35,3.35,0,0,1,2.1-.66,8.32,8.32,0,0,1,1.36.13h.06v1.3l-.09,0a3.71,3.71,0,0,0-.89-.12,2.06,2.06,0,0,0-1.39.4,2,2,0,0,0-.44,1.52v.31h2.25v1.27h-2.26Zm-1.48-.14h1.34V22.49H135v-1H132.7v-.45a2.15,2.15,0,0,1,.49-1.62,2.16,2.16,0,0,1,1.48-.44,3.78,3.78,0,0,1,.84.1v-1a8.06,8.06,0,0,0-1.28-.12,3.21,3.21,0,0,0-2,.63c-.54.42-.83,1.37-.85,2.83v.07h-1.61v1h1.61Z"/><path class="cls-1" d="M138.93,18.16v1.61h-1.59V18.16Zm0,3.27v9.3h-1.48v-9.3Z"/><path class="cls-1" d="M139,30.8h-1.61V21.36H139Zm-1.48-.14h1.34V21.5h-1.34ZM139,19.84h-1.73V18.09H139Zm-1.59-.14h1.45V18.23h-1.45Z"/><path class="cls-1" d="M146.51,29.74v1.14a10.72,10.72,0,0,1-1.35.1q-2.75,0-2.75-2.82v-5.6h-1.68V21.43h1.68l.07-2.34,1.37-.13v2.47H146v1.13h-2.12v5.84q0,1.44,1.52,1.44A7.39,7.39,0,0,0,146.51,29.74Z"/><path class="cls-1" d="M145.16,31.05c-1.87,0-2.82-1-2.82-2.89V22.63h-1.68V21.36h1.68L142.4,19l1.51-.14v2.48H146v1.27h-2.12v5.77c0,.92.47,1.37,1.45,1.37a7.36,7.36,0,0,0,1.14-.1h.08v1.29h-.06A10.83,10.83,0,0,1,145.16,31.05Zm-4.36-8.56h1.68v5.67c0,1.85.88,2.75,2.68,2.75a10.51,10.51,0,0,0,1.28-.09v-1a7.33,7.33,0,0,1-1.08.09c-1.06,0-1.59-.51-1.59-1.51V22.49h2.12v-1h-2.12V19l-1.23.12-.07,2.35h-1.68Z"/><path class="cls-1" d="M147.23,28.31l1.41-.28q.47,1.76,3,1.76a2.86,2.86,0,0,0,1.56-.41,1.28,1.28,0,0,0,.64-1.14q0-1.09-1.63-1.39l-2-.37a3.67,3.67,0,0,1-1.87-.87,2.23,2.23,0,0,1-.7-1.7,2.44,2.44,0,0,1,.95-2,3.87,3.87,0,0,1,2.55-.79q3.09,0,3.81,2.37l-1.35.28a2.32,2.32,0,0,0-2.39-1.46,2.74,2.74,0,0,0-1.48.36,1.14,1.14,0,0,0-.57,1q0,1,1.48,1.3l1.85.33q2.9.52,2.9,2.76a2.45,2.45,0,0,1-1.08,2.07,4.78,4.78,0,0,1-2.87.79Q148,31,147.23,28.31Z"/><path class="cls-1" d="M151.4,31.05c-2.27,0-3.7-.91-4.24-2.72l0-.07,1.55-.31,0,.06c.3,1.13,1.28,1.71,2.9,1.71a2.79,2.79,0,0,0,1.52-.39,1.2,1.2,0,0,0,.61-1.08c0-.7-.51-1.13-1.57-1.32l-2-.37a3.77,3.77,0,0,1-1.9-.88,2.29,2.29,0,0,1-.72-1.75,2.51,2.51,0,0,1,1-2,4,4,0,0,1,2.6-.8c2.08,0,3.39.81,3.88,2.42l0,.07-1.48.31,0-.05a2.24,2.24,0,0,0-2.33-1.41,2.68,2.68,0,0,0-1.44.35,1.07,1.07,0,0,0-.54,1c0,.65.46,1.06,1.42,1.23l1.85.33c2,.35,3,1.3,3,2.83a2.52,2.52,0,0,1-1.11,2.13A4.86,4.86,0,0,1,151.4,31.05Zm-4.08-2.69c.54,1.69,1.91,2.55,4.08,2.55a4.72,4.72,0,0,0,2.83-.78,2.39,2.39,0,0,0,1.05-2c0-1.47-.93-2.35-2.84-2.69l-1.85-.33c-1-.18-1.54-.64-1.54-1.37a1.21,1.21,0,0,1,.61-1.08,2.82,2.82,0,0,1,1.52-.37,2.39,2.39,0,0,1,2.44,1.44l1.22-.26c-.49-1.49-1.74-2.24-3.72-2.24a3.85,3.85,0,0,0-2.51.77,2.39,2.39,0,0,0-.92,1.9,2.16,2.16,0,0,0,.67,1.65,3.67,3.67,0,0,0,1.83.85l2,.37c1.12.2,1.68.7,1.68,1.46a1.35,1.35,0,0,1-.67,1.2,2.93,2.93,0,0,1-1.6.42c-1.66,0-2.68-.59-3-1.75Z"/><path class="cls-1" d="M161.73,27.4l1.45-.32A3.61,3.61,0,0,0,167,29.65a3.55,3.55,0,0,0,2.29-.63,2.08,2.08,0,0,0,.77-1.7,1.6,1.6,0,0,0-.59-1.29,3.28,3.28,0,0,0-1.36-.67l-2.57-.62a6.68,6.68,0,0,1-1.63-.6A2.94,2.94,0,0,1,162.81,23a3.22,3.22,0,0,1-.44-1.69,3,3,0,0,1,1.21-2.51,4.94,4.94,0,0,1,3.11-.94,4.42,4.42,0,0,1,4.59,3.1l-1.46.42a2.53,2.53,0,0,0-1.19-1.68,3.81,3.81,0,0,0-2-.57,3.31,3.31,0,0,0-1.87.55,1.75,1.75,0,0,0-.82,1.54q0,1.4,2.08,1.89l2.4.55q3.29.77,3.29,3.47a3.46,3.46,0,0,1-1.23,2.71A5.11,5.11,0,0,1,167,31,5.05,5.05,0,0,1,161.73,27.4Z"/><path class="cls-1" d="M167,31.05a5.15,5.15,0,0,1-5.33-3.63l0-.07,1.58-.35,0,.06A3.55,3.55,0,0,0,167,29.57a3.5,3.5,0,0,0,2.25-.62,2,2,0,0,0,.74-1.64,1.54,1.54,0,0,0-.56-1.24,3.23,3.23,0,0,0-1.33-.66l-2.56-.62a6.78,6.78,0,0,1-1.65-.61,3,3,0,0,1-1.1-1.12,3.3,3.3,0,0,1-.45-1.72,3.09,3.09,0,0,1,1.24-2.57,5,5,0,0,1,3.15-1A4.5,4.5,0,0,1,171.35,21l0,.07-1.6.47,0-.07a2.47,2.47,0,0,0-1.16-1.63,3.76,3.76,0,0,0-2-.56,3.25,3.25,0,0,0-1.84.53,1.68,1.68,0,0,0-.79,1.49c0,.89.68,1.5,2,1.82l2.4.55c2.22.52,3.34,1.71,3.34,3.54a3.54,3.54,0,0,1-1.26,2.76A5.15,5.15,0,0,1,167,31.05Zm-5.17-3.6a5.74,5.74,0,0,0,8.6,2.4,3.4,3.4,0,0,0,1.21-2.65c0-1.75-1.09-2.9-3.23-3.4l-2.4-.55c-1.42-.33-2.14-1-2.14-2a1.82,1.82,0,0,1,.85-1.6,3.39,3.39,0,0,1,1.91-.56,3.9,3.9,0,0,1,2,.58,2.6,2.6,0,0,1,1.21,1.64L171.2,21a4.36,4.36,0,0,0-4.5-3,4.93,4.93,0,0,0-3.07.92,3,3,0,0,0-1.18,2.46,3.17,3.17,0,0,0,.43,1.65,2.89,2.89,0,0,0,1,1.07,6.64,6.64,0,0,0,1.61.6l2.57.62a3.37,3.37,0,0,1,1.38.69,1.68,1.68,0,0,1,.61,1.35,2.16,2.16,0,0,1-.8,1.75,3.63,3.63,0,0,1-2.34.65,3.68,3.68,0,0,1-3.83-2.56Z"/><path class="cls-1" d="M176.34,28.66v2.06h-2.1V28.66Z"/><path class="cls-1" d="M176.41,30.8h-2.24v-2.2h2.24Zm-2.1-.14h2V28.73h-2Z"/><path class="cls-1" d="M188.9,30.73h-1.68l-2.36-5.45h-3.68v5.45h-1.5V18.16h5.05a3.9,3.9,0,0,1,3,1.1,3.52,3.52,0,0,1,1,2.41,3.68,3.68,0,0,1-.56,1.92,3.12,3.12,0,0,1-1.83,1.32ZM181.17,24h3.35a2.61,2.61,0,0,0,2-.69,2.35,2.35,0,0,0,.65-1.68,1.87,1.87,0,0,0-.69-1.55,2.7,2.7,0,0,0-1.74-.56h-3.55Z"/><path class="cls-1" d="M189,30.8h-1.84l-2.36-5.45h-3.56V30.8H179.6V18.08h5.12a4,4,0,0,1,3.1,1.12,3.59,3.59,0,0,1,1,2.45,3.76,3.76,0,0,1-.56,2,3.15,3.15,0,0,1-1.8,1.32Zm-1.74-.14h1.54l-2.51-5.79.07,0a3,3,0,0,0,1.79-1.29,3.63,3.63,0,0,0,.54-1.89,3.46,3.46,0,0,0-1-2.36,3.86,3.86,0,0,0-3-1.08h-5V30.66h1.36V25.21h3.79Zm-2.73-6.58h-3.42V19.46h3.62a2.78,2.78,0,0,1,1.79.57,1.94,1.94,0,0,1,.72,1.6,2.42,2.42,0,0,1-.67,1.73,2.67,2.67,0,0,1-2,.71Zm-3.28-.14h3.28a2.55,2.55,0,0,0,1.93-.66,2.29,2.29,0,0,0,.63-1.63,1.81,1.81,0,0,0-.66-1.49,2.64,2.64,0,0,0-1.7-.54h-3.48Z"/><path class="cls-1" d="M193.7,28.66v2.06H191.6V28.66Z"/><path class="cls-1" d="M193.77,30.8h-2.24v-2.2h2.24Zm-2.1-.14h2V28.73h-2Z"/><path class="cls-1" d="M204.61,29.35v1.38H197V18.16h1.64V29.35Z"/><path class="cls-1" d="M204.68,30.8H197V18.08h1.78V29.27h5.93Zm-7.57-.14h7.43V29.42h-5.93V18.23h-1.5Z"/><path class="cls-1" d="M138.93,18.16v1.61h-1.59V18.16Zm0,3.27v9.3h-1.48v-9.3Z"/><path class="cls-1" d="M139,30.8h-1.61V21.36H139Zm-1.48-.14h1.34V21.5h-1.34ZM139,19.84h-1.73V18.09H139Zm-1.59-.14h1.45V18.23h-1.45Z"/><path class="cls-1" d="M146.51,29.74v1.14a10.72,10.72,0,0,1-1.35.1q-2.75,0-2.75-2.82v-5.6h-1.68V21.43h1.68l.07-2.34,1.37-.13v2.47H146v1.13h-2.12v5.84q0,1.44,1.52,1.44A7.39,7.39,0,0,0,146.51,29.74Z"/><path class="cls-1" d="M145.16,31.05c-1.87,0-2.82-1-2.82-2.89V22.63h-1.68V21.36h1.68L142.4,19l1.51-.14v2.48H146v1.27h-2.12v5.77c0,.92.47,1.37,1.45,1.37a7.36,7.36,0,0,0,1.14-.1h.08v1.29h-.06A10.83,10.83,0,0,1,145.16,31.05Zm-4.36-8.56h1.68v5.67c0,1.85.88,2.75,2.68,2.75a10.51,10.51,0,0,0,1.28-.09v-1a7.33,7.33,0,0,1-1.08.09c-1.06,0-1.59-.51-1.59-1.51V22.49h2.12v-1h-2.12V19l-1.23.12-.07,2.35h-1.68Z"/><path class="cls-1" d="M147.23,28.31l1.41-.28q.47,1.76,3,1.76a2.86,2.86,0,0,0,1.56-.41,1.28,1.28,0,0,0,.64-1.14q0-1.09-1.63-1.39l-2-.37a3.67,3.67,0,0,1-1.87-.87,2.23,2.23,0,0,1-.7-1.7,2.44,2.44,0,0,1,.95-2,3.87,3.87,0,0,1,2.55-.79q3.09,0,3.81,2.37l-1.35.28a2.32,2.32,0,0,0-2.39-1.46,2.74,2.74,0,0,0-1.48.36,1.14,1.14,0,0,0-.57,1q0,1,1.48,1.3l1.85.33q2.9.52,2.9,2.76a2.45,2.45,0,0,1-1.08,2.07,4.78,4.78,0,0,1-2.87.79Q148,31,147.23,28.31Z"/><path class="cls-1" d="M151.4,31.05c-2.27,0-3.7-.91-4.24-2.72l0-.07,1.55-.31,0,.06c.3,1.13,1.28,1.71,2.9,1.71a2.79,2.79,0,0,0,1.52-.39,1.2,1.2,0,0,0,.61-1.08c0-.7-.51-1.13-1.57-1.32l-2-.37a3.77,3.77,0,0,1-1.9-.88,2.29,2.29,0,0,1-.72-1.75,2.51,2.51,0,0,1,1-2,4,4,0,0,1,2.6-.8c2.08,0,3.39.81,3.88,2.42l0,.07-1.48.31,0-.05a2.24,2.24,0,0,0-2.33-1.41,2.68,2.68,0,0,0-1.44.35,1.07,1.07,0,0,0-.54,1c0,.65.46,1.06,1.42,1.23l1.85.33c2,.35,3,1.3,3,2.83a2.52,2.52,0,0,1-1.11,2.13A4.86,4.86,0,0,1,151.4,31.05Zm-4.08-2.69c.54,1.69,1.91,2.55,4.08,2.55a4.72,4.72,0,0,0,2.83-.78,2.39,2.39,0,0,0,1.05-2c0-1.47-.93-2.35-2.84-2.69l-1.85-.33c-1-.18-1.54-.64-1.54-1.37a1.21,1.21,0,0,1,.61-1.08,2.82,2.82,0,0,1,1.52-.37,2.39,2.39,0,0,1,2.44,1.44l1.22-.26c-.49-1.49-1.74-2.24-3.72-2.24a3.85,3.85,0,0,0-2.51.77,2.39,2.39,0,0,0-.92,1.9,2.16,2.16,0,0,0,.67,1.65,3.67,3.67,0,0,0,1.83.85l2,.37c1.12.2,1.68.7,1.68,1.46a1.35,1.35,0,0,1-.67,1.2,2.93,2.93,0,0,1-1.6.42c-1.66,0-2.68-.59-3-1.75Z"/><path class="cls-1" d="M161.73,27.4l1.45-.32A3.61,3.61,0,0,0,167,29.65a3.55,3.55,0,0,0,2.29-.63,2.08,2.08,0,0,0,.77-1.7,1.6,1.6,0,0,0-.59-1.29,3.28,3.28,0,0,0-1.36-.67l-2.57-.62a6.68,6.68,0,0,1-1.63-.6A2.94,2.94,0,0,1,162.81,23a3.22,3.22,0,0,1-.44-1.69,3,3,0,0,1,1.21-2.51,4.94,4.94,0,0,1,3.11-.94,4.42,4.42,0,0,1,4.59,3.1l-1.46.42a2.53,2.53,0,0,0-1.19-1.68,3.81,3.81,0,0,0-2-.57,3.31,3.31,0,0,0-1.87.55,1.75,1.75,0,0,0-.82,1.54q0,1.4,2.08,1.89l2.4.55q3.29.77,3.29,3.47a3.46,3.46,0,0,1-1.23,2.71A5.11,5.11,0,0,1,167,31,5.05,5.05,0,0,1,161.73,27.4Z"/><path class="cls-1" d="M167,31.05a5.15,5.15,0,0,1-5.33-3.63l0-.07,1.58-.35,0,.06A3.55,3.55,0,0,0,167,29.57a3.5,3.5,0,0,0,2.25-.62,2,2,0,0,0,.74-1.64,1.54,1.54,0,0,0-.56-1.24,3.23,3.23,0,0,0-1.33-.66l-2.56-.62a6.78,6.78,0,0,1-1.65-.61,3,3,0,0,1-1.1-1.12,3.3,3.3,0,0,1-.45-1.72,3.09,3.09,0,0,1,1.24-2.57,5,5,0,0,1,3.15-1A4.5,4.5,0,0,1,171.35,21l0,.07-1.6.47,0-.07a2.47,2.47,0,0,0-1.16-1.63,3.76,3.76,0,0,0-2-.56,3.25,3.25,0,0,0-1.84.53,1.68,1.68,0,0,0-.79,1.49c0,.89.68,1.5,2,1.82l2.4.55c2.22.52,3.34,1.71,3.34,3.54a3.54,3.54,0,0,1-1.26,2.76A5.15,5.15,0,0,1,167,31.05Zm-5.17-3.6a5.74,5.74,0,0,0,8.6,2.4,3.4,3.4,0,0,0,1.21-2.65c0-1.75-1.09-2.9-3.23-3.4l-2.4-.55c-1.42-.33-2.14-1-2.14-2a1.82,1.82,0,0,1,.85-1.6,3.39,3.39,0,0,1,1.91-.56,3.9,3.9,0,0,1,2,.58,2.6,2.6,0,0,1,1.21,1.64L171.2,21a4.36,4.36,0,0,0-4.5-3,4.93,4.93,0,0,0-3.07.92,3,3,0,0,0-1.18,2.46,3.17,3.17,0,0,0,.43,1.65,2.89,2.89,0,0,0,1,1.07,6.64,6.64,0,0,0,1.61.6l2.57.62a3.37,3.37,0,0,1,1.38.69,1.68,1.68,0,0,1,.61,1.35,2.16,2.16,0,0,1-.8,1.75,3.63,3.63,0,0,1-2.34.65,3.68,3.68,0,0,1-3.83-2.56Z"/><path class="cls-1" d="M176.34,28.66v2.06h-2.1V28.66Z"/><path class="cls-1" d="M176.41,30.8h-2.24v-2.2h2.24Zm-2.1-.14h2V28.73h-2Z"/><path class="cls-1" d="M188.9,30.73h-1.68l-2.36-5.45h-3.68v5.45h-1.5V18.16h5.05a3.9,3.9,0,0,1,3,1.1,3.52,3.52,0,0,1,1,2.41,3.68,3.68,0,0,1-.56,1.92,3.12,3.12,0,0,1-1.83,1.32ZM181.17,24h3.35a2.61,2.61,0,0,0,2-.69,2.35,2.35,0,0,0,.65-1.68,1.87,1.87,0,0,0-.69-1.55,2.7,2.7,0,0,0-1.74-.56h-3.55Z"/><path class="cls-1" d="M189,30.8h-1.84l-2.36-5.45h-3.56V30.8H179.6V18.08h5.12a4,4,0,0,1,3.1,1.12,3.59,3.59,0,0,1,1,2.45,3.76,3.76,0,0,1-.56,2,3.15,3.15,0,0,1-1.8,1.32Zm-1.74-.14h1.54l-2.51-5.79.07,0a3,3,0,0,0,1.79-1.29,3.63,3.63,0,0,0,.54-1.89,3.46,3.46,0,0,0-1-2.36,3.86,3.86,0,0,0-3-1.08h-5V30.66h1.36V25.21h3.79Zm-2.73-6.58h-3.42V19.46h3.62a2.78,2.78,0,0,1,1.79.57,1.94,1.94,0,0,1,.72,1.6,2.42,2.42,0,0,1-.67,1.73,2.67,2.67,0,0,1-2,.71Zm-3.28-.14h3.28a2.55,2.55,0,0,0,1.93-.66,2.29,2.29,0,0,0,.63-1.63,1.81,1.81,0,0,0-.66-1.49,2.64,2.64,0,0,0-1.7-.54h-3.48Z"/><path class="cls-1" d="M193.7,28.66v2.06H191.6V28.66Z"/><path class="cls-1" d="M193.77,30.8h-2.24v-2.2h2.24Zm-2.1-.14h2V28.73h-2Z"/><path class="cls-1" d="M204.61,29.35v1.38H197V18.16h1.64V29.35Z"/><path class="cls-1" d="M204.68,30.8H197V18.08h1.78V29.27h5.93Zm-7.57-.14h7.43V29.42h-5.93V18.23h-1.5Z"/></svg>